<svg width="25" height="25" viewBox="0 0 25 25" fill="none" xmlns="http://www.w3.org/2000/svg">
<path d="M6.24947 7.9545C7.19087 7.9545 7.95401 7.19135 7.95401 6.24996C7.95401 5.30856 7.19087 4.54541 6.24947 4.54541C5.30807 4.54541 4.54492 5.30856 4.54492 6.24996C4.54492 7.19135 5.30807 7.9545 6.24947 7.9545Z" fill="#E5E5E5"/>
<path d="M4.54492 10.2272C4.54492 9.59959 5.05369 9.09082 5.68129 9.09082H6.81765C7.44524 9.09082 7.95401 9.59958 7.95401 10.2272V19.3181C7.95401 19.9457 7.44524 20.4545 6.81765 20.4545H5.68129C5.05369 20.4545 4.54492 19.9457 4.54492 19.3181V10.2272Z" fill="#E5E5E5"/>
<path d="M11.3639 20.4545H12.5003C13.1279 20.4545 13.6366 19.9457 13.6366 19.3181V14.2045C13.6366 12.4999 17.0457 11.3635 17.0457 13.6363V19.3185C17.0457 19.9462 17.5545 20.4545 18.1821 20.4545H19.3184C19.9461 20.4545 20.4548 19.9457 20.4548 19.3181V12.4999C20.4548 10.2272 18.7503 9.09082 16.4775 9.09082C14.2048 9.09082 13.6366 10.7954 13.6366 10.7954V10.2272C13.6366 9.59958 13.1279 9.09082 12.5003 9.09082H11.3639C10.7363 9.09082 10.2275 9.59959 10.2275 10.2272V19.3181C10.2275 19.9457 10.7363 20.4545 11.3639 20.4545Z" fill="#E5E5E5"/>
<path fill-rule="evenodd" clip-rule="evenodd" d="M21.5909 0C23.4737 0 25 1.52631 25 3.40909V21.5909C25 23.4737 23.4737 25 21.5909 25H3.40909C1.52631 25 0 23.4737 0 21.5909V3.40909C0 1.52631 1.52631 0 3.40909 0H21.5909ZM21.5909 2.27273C22.2185 2.27273 22.7273 2.7815 22.7273 3.40909V21.5909C22.7273 22.2185 22.2185 22.7273 21.5909 22.7273H3.40909C2.7815 22.7273 2.27273 22.2185 2.27273 21.5909V3.40909C2.27273 2.7815 2.7815 2.27273 3.40909 2.27273H21.5909Z" fill="#E5E5E5"/>
</svg>
