<svg width="49" height="26" viewBox="0 0 49 26" fill="none" xmlns="http://www.w3.org/2000/svg">
<path d="M47.8326 12.7855C47.5833 12.4569 47.249 12.1695 46.8495 11.9406C46.45 11.7116 45.9935 11.5457 45.5072 11.4527C44.0477 11.1785 42.5431 11.0655 41.0406 11.1174C41.3408 9.31287 41.1215 7.48075 40.3977 5.7461C40.1109 5.0753 39.5044 4.50877 38.6957 4.15634C37.887 3.80391 36.9338 3.6907 36.0208 3.83864C34.4525 4.09793 32.9444 4.53266 31.5463 5.12844C30.2985 3.34834 28.5539 1.79377 26.433 0.571998C25.7805 0.200761 24.9857 -2.57128e-05 24.1687 2.46976e-09C23.3517 2.57178e-05 22.5569 0.200863 21.9045 0.57214C19.7835 1.79383 18.0389 3.34836 16.7911 5.12844C15.3933 4.53273 13.8853 4.098 12.3173 3.83864C11.4042 3.69051 10.4507 3.80364 9.64187 4.15609C8.83301 4.50853 8.22639 5.07516 7.93965 5.74609C7.21594 7.48075 6.99668 9.31287 7.29684 11.1174C5.79429 11.0656 4.28974 11.1785 2.83015 11.4527C2.34462 11.547 1.88887 11.7134 1.4896 11.9422C1.09032 12.1711 0.755554 12.4577 0.504891 12.7855C0.254228 13.1132 0.0927096 13.4754 0.0297945 13.8508C-0.0331205 14.2262 0.00383229 14.6073 0.138489 14.9719C0.837636 16.859 2.96919 20.4426 9.38902 23.2404C15.71 25.995 21.1975 25.9996 24.1536 25.9996C24.1579 25.9996 24.1622 26 24.1665 26L24.1687 25.9999L24.1709 26C24.1753 26 24.1795 25.9996 24.1839 25.9996C27.1399 25.9996 32.6275 25.995 38.9485 23.2404C45.3683 20.4426 47.4998 16.859 48.199 14.972C48.3355 14.6076 48.3734 14.2263 48.3104 13.8506C48.2475 13.475 48.085 13.1127 47.8326 12.7855ZM36.2819 7.31295C36.6764 8.49641 36.9098 10.3181 36.0254 12.588C36.0067 12.6303 35.9897 12.673 35.9754 12.7164C35.5469 13.7532 34.9637 14.7498 34.2369 15.687C34.002 15.9943 33.754 16.2906 33.4975 16.5784C33.8291 15.3639 33.9933 14.1268 33.9876 12.8868C33.9979 11.3561 33.7414 9.83094 33.2248 8.35068C34.1753 7.8996 35.2041 7.55036 36.2819 7.31295ZM24.1687 3.57863C26.0526 4.75534 29.4558 7.61263 29.4558 12.8868C29.4558 18.2217 25.9994 21.0691 24.1687 22.2029C22.338 21.0691 18.8817 18.2217 18.8817 12.8868C18.8817 7.61221 22.2851 4.75506 24.1687 3.57863ZM12.0556 7.31295C13.1334 7.55036 14.1622 7.89961 15.1127 8.35068C14.596 9.83094 14.3396 11.3561 14.3499 12.8868C14.3442 14.1268 14.5084 15.3639 14.84 16.5784C14.5835 16.2906 14.3355 15.9943 14.1006 15.687C13.3738 14.7497 12.7905 13.753 12.3621 12.7162C12.3478 12.673 12.3309 12.6305 12.3122 12.5884C11.4276 10.3182 11.6611 8.49641 12.0556 7.31295ZM4.75758 14.6388C5.97567 14.4924 7.2163 14.4878 8.43623 14.6251C8.91242 15.5843 9.49433 16.5116 10.1758 17.3974C11.2217 18.7533 12.4766 20.011 13.9143 21.1441C13.1411 20.8863 12.3868 20.5972 11.6549 20.2779C7.26872 18.3664 5.48263 16.1046 4.75758 14.6388ZM36.6826 20.2779C35.9538 20.5958 35.2029 20.8838 34.4331 21.1408C35.8675 20.0085 37.119 18.752 38.1616 17.3974C38.8432 16.5116 39.4251 15.5842 39.9013 14.625C41.1212 14.4876 42.3619 14.4922 43.5799 14.6388C42.8548 16.1046 41.0688 18.3664 36.6826 20.2779Z" fill="url(#paint0_linear_12_4)"/>
<defs>
<linearGradient id="paint0_linear_12_4" x1="45.1805" y1="-0.526316" x2="39.1461" y2="32.3808" gradientUnits="userSpaceOnUse">
<stop offset="0.1" stop-color="#FFB001"/>
<stop offset="1" stop-color="#996A01"/>
</linearGradient>
</defs>
</svg>
