<svg width="38" height="39" viewBox="0 0 38 39" fill="none" xmlns="http://www.w3.org/2000/svg">
<g filter="url(#filter0_d_15_47)">
<path fill-rule="evenodd" clip-rule="evenodd" d="M4 3.875V15.5C4 19.6109 5.56791 23.5533 8.35882 26.4602C11.1497 29.367 14.935 31 18.8819 31C22.8289 31 26.6141 29.367 29.405 26.4602C32.1959 23.5533 33.7639 19.6109 33.7639 15.5V3.875L30.0434 0L26.3229 3.875L22.6024 0L18.8819 3.875L15.1614 0L11.441 3.875L7.72048 0L4 3.875ZM7.72048 5.8125L11.441 9.6875L15.1614 5.8125L18.8819 9.6875L22.6024 5.8125L26.3229 9.6875L30.0434 5.8125V15.5C30.0434 17.0266 29.7547 18.5383 29.1938 19.9487C28.6328 21.3591 27.8107 22.6406 26.7743 23.7201C25.7378 24.7996 24.5074 25.6559 23.1532 26.2401C21.7991 26.8243 20.3477 27.125 18.8819 27.125C17.4162 27.125 15.9648 26.8243 14.6106 26.2401C13.2565 25.6559 12.026 24.7996 10.9896 23.7201C9.95316 22.6406 9.13101 21.3591 8.5701 19.9487C8.00918 18.5383 7.72048 17.0266 7.72048 15.5V5.8125Z" fill="url(#paint0_linear_15_47)"/>
</g>
<defs>
<filter id="filter0_d_15_47" x="0" y="0" width="37.7637" height="39" filterUnits="userSpaceOnUse" color-interpolation-filters="sRGB">
<feFlood flood-opacity="0" result="BackgroundImageFix"/>
<feColorMatrix in="SourceAlpha" type="matrix" values="0 0 0 0 0 0 0 0 0 0 0 0 0 0 0 0 0 0 127 0" result="hardAlpha"/>
<feOffset dy="4"/>
<feGaussianBlur stdDeviation="2"/>
<feComposite in2="hardAlpha" operator="out"/>
<feColorMatrix type="matrix" values="0 0 0 0 1 0 0 0 0 0.690196 0 0 0 0 0.00392157 0 0 0 0.2 0"/>
<feBlend mode="normal" in2="BackgroundImageFix" result="effect1_dropShadow_15_47"/>
<feBlend mode="normal" in="SourceGraphic" in2="effect1_dropShadow_15_47" result="shape"/>
</filter>
<linearGradient id="paint0_linear_15_47" x1="31.8185" y1="-0.627531" x2="19.0301" y2="35.3861" gradientUnits="userSpaceOnUse">
<stop offset="0.1" stop-color="#FFB001"/>
<stop offset="1" stop-color="#996A01"/>
</linearGradient>
</defs>
</svg>
