<svg width="50" height="89" viewBox="0 0 50 89" fill="none" xmlns="http://www.w3.org/2000/svg">
<g clip-path="url(#clip0_4_744)">
<path d="M24.8167 87.5514L24.311 88.0464L24.8167 88.5414L25.3223 88.0464L24.8167 87.5514Z" fill="url(#paint0_linear_4_744)" stroke="url(#paint1_linear_4_744)"/>
<path d="M21.4284 88.2992C23.0064 88.2992 24.2856 87.0442 24.2856 85.4961C24.2856 83.9479 23.0064 82.6929 21.4284 82.6929C19.8505 82.6929 18.5713 83.9479 18.5713 85.4961C18.5713 87.0442 19.8505 88.2992 21.4284 88.2992Z" stroke="url(#paint2_linear_4_744)"/>
<path d="M21.8507 86.3195C22.4783 86.3195 22.9871 85.8214 22.9871 85.207C22.9871 84.5926 22.4783 84.0945 21.8507 84.0945C21.2231 84.0945 20.7144 84.5926 20.7144 85.207C20.7144 85.8214 21.2231 86.3195 21.8507 86.3195Z" fill="url(#paint3_linear_4_744)" stroke="url(#paint4_linear_4_744)"/>
<path d="M28.5715 88.2992C30.1495 88.2992 31.4286 87.0442 31.4286 85.4961C31.4286 83.9479 30.1495 82.6929 28.5715 82.6929C26.9935 82.6929 25.7144 83.9479 25.7144 85.4961C25.7144 87.0442 26.9935 88.2992 28.5715 88.2992Z" stroke="url(#paint5_linear_4_744)"/>
<path d="M28.2794 86.3195C28.907 86.3195 29.4158 85.8214 29.4158 85.207C29.4158 84.5926 28.907 84.0945 28.2794 84.0945C27.6518 84.0945 27.1431 84.5926 27.1431 85.207C27.1431 85.8214 27.6518 86.3195 28.2794 86.3195Z" fill="url(#paint6_linear_4_744)" stroke="url(#paint7_linear_4_744)"/>
<path d="M25.0088 83.1324C25.0288 83.153 25.0544 83.1918 25.0792 83.2525C25.1285 83.3733 25.1626 83.551 25.1626 83.7554C25.1626 83.9597 25.1285 84.1374 25.0792 84.2582C25.0544 84.3189 25.0288 84.3577 25.0088 84.3784C25.0058 84.3815 25.0024 84.3831 25.0002 84.385C24.998 84.3831 24.9947 84.3815 24.9917 84.3784C24.9716 84.3577 24.9461 84.3189 24.9213 84.2582C24.8719 84.1374 24.8379 83.9597 24.8379 83.7554C24.8379 83.551 24.8719 83.3733 24.9213 83.2525C24.9461 83.1918 24.9716 83.153 24.9917 83.1324C24.9947 83.1292 24.998 83.1273 25.0002 83.1254C25.0025 83.1273 25.0057 83.1292 25.0088 83.1324Z" fill="url(#paint8_linear_4_744)" stroke="url(#paint9_linear_4_744)"/>
<path d="M0 83.5964H15.3483" stroke="url(#paint10_linear_4_744)"/>
<path d="M15.0532 83.5964C16.4865 83.5964 16.7623 84.5783 15.0532 85.1857" stroke="#FFB001"/>
<path d="M50 83.5964H34.6517" stroke="#FFB001"/>
<path d="M34.9467 83.5964C33.5136 83.5964 33.2376 84.5783 34.9467 85.1857" stroke="#FFB001"/>
<path d="M0 81.6893H50" stroke="url(#paint11_linear_4_744)"/>
<path d="M40.6703 30.0744C40.7933 30.0695 40.954 30.0383 41.1651 29.9906C42.4914 29.6739 43.3326 29.0728 45.6378 26.7841L47.7112 24.723V20.0408H1.96436V22.0911C1.96436 22.6629 1.98862 23.1789 2.03316 23.5515C2.05544 23.738 2.08278 23.8878 2.11433 23.9908C2.13014 24.0424 2.14683 24.0813 2.16379 24.1069C2.1811 24.1329 2.19615 24.1413 2.20786 24.1413C2.22233 24.1413 2.24636 24.1382 2.27952 24.1317C2.31244 24.1252 2.35359 24.1155 2.40159 24.1031C2.49761 24.0784 2.62117 24.0428 2.76305 23.9991C3.04686 23.9118 3.4039 23.7925 3.76085 23.6655C5.93884 22.9335 9.64299 22.6154 12.3073 22.9335C15.6218 23.3153 18.903 24.4606 23.6764 26.8766C25.7222 27.9099 26.9468 28.4974 27.6597 28.7353C27.8377 28.7947 27.9833 28.8321 28.1014 28.8493C28.2197 28.8665 28.3093 28.8632 28.376 28.8424C28.4418 28.8219 28.486 28.7839 28.5142 28.7297C28.5427 28.6748 28.5554 28.6021 28.5554 28.5119C28.5554 28.4952 28.5603 28.4753 28.5687 28.4532C28.5772 28.4309 28.5897 28.4052 28.6058 28.3765C28.6381 28.3189 28.6855 28.2478 28.746 28.1655C28.8671 28.0005 29.0422 27.7885 29.2574 27.544C29.6879 27.0549 30.2807 26.4348 30.9302 25.7989C31.6688 25.0758 32.2519 24.5306 32.7547 24.1559C33.2573 23.7812 33.6813 23.5757 34.1014 23.5335C34.5222 23.4914 34.9368 23.6131 35.4199 23.8877C35.9027 24.1621 36.4553 24.5902 37.1534 25.1622C38.5326 26.3061 39.3135 26.9907 39.7492 27.5406C39.967 27.8159 40.0992 28.058 40.1764 28.3076C40.2537 28.5571 40.2761 28.8132 40.2761 29.1159C40.2761 29.3703 40.28 29.564 40.2992 29.7088C40.3183 29.854 40.3524 29.9467 40.4092 30.0024C40.4654 30.0574 40.5472 30.0793 40.6703 30.0744Z" fill="url(#paint12_linear_4_744)" stroke="url(#paint13_linear_4_744)" stroke-width="0.1"/>
<path d="M34.9363 30.3715C36.1873 30.4669 36.8506 30.5062 37.2659 30.4351C37.4727 30.3998 37.6172 30.3369 37.7418 30.2405C37.8672 30.1437 37.9737 30.0124 38.1035 29.8376C38.2493 29.6317 38.3785 29.41 38.4714 29.2162C38.5178 29.1192 38.5552 29.0295 38.5808 28.9523C38.6065 28.8748 38.6201 28.8112 38.6201 28.7661C38.6201 28.7573 38.6168 28.7447 38.6097 28.7282C38.6026 28.7119 38.5918 28.6927 38.5772 28.6708C38.5483 28.6268 38.5055 28.5727 38.4503 28.51C38.3399 28.3845 38.1815 28.2255 37.9896 28.0453C37.6058 27.6851 37.0896 27.2403 36.56 26.8074C36.0308 26.3745 35.4883 25.9535 35.0519 25.6409C34.8337 25.4845 34.6418 25.3556 34.4918 25.2656C34.4172 25.2207 34.3526 25.1856 34.3006 25.1619C34.2483 25.1379 34.2107 25.1265 34.1883 25.1265C34.1811 25.1265 34.1701 25.1289 34.1548 25.1349C34.1399 25.1409 34.1217 25.1499 34.1003 25.1619C34.0578 25.186 34.0042 25.2219 33.9409 25.2684C33.8143 25.3614 33.649 25.4962 33.4565 25.6629C33.0711 25.9964 32.5763 26.457 32.0569 26.9654C31.5539 27.4738 31.0916 27.974 30.755 28.3709C30.5868 28.5694 30.4503 28.7418 30.3558 28.8763C30.3086 28.9436 30.272 29.0013 30.2474 29.0476C30.2224 29.0948 30.2109 29.128 30.2109 29.1476C30.211 29.2735 30.3135 29.3986 30.5236 29.5197C30.7327 29.6403 31.0438 29.7542 31.4491 29.8593C32.2594 30.0695 33.4431 30.2444 34.9363 30.3715Z" fill="url(#paint14_linear_4_744)" stroke="url(#paint15_linear_4_744)" stroke-width="0.1"/>
<path d="M35.8697 36.3145L37.4232 34.7624L38.9242 33.2304L34.8369 33.0412C32.4337 32.93 30.7923 32.739 28.9641 32.1942C27.1365 31.6494 25.1224 30.7508 21.9731 29.2251C20.0255 28.242 17.3931 27.1193 15.9223 26.6165L15.6442 26.5243C14.428 26.1433 12.8139 25.8415 11.2887 25.6747C9.76298 25.5079 8.32815 25.4765 7.47026 25.635H7.46993C6.48026 25.8256 5.66958 26.0241 5.10652 26.2105C4.82487 26.3037 4.60578 26.3936 4.4575 26.4778C4.38341 26.5198 4.32773 26.56 4.29071 26.5979C4.25354 26.6359 4.23682 26.6701 4.23682 26.7C4.23682 26.7053 4.23863 26.7137 4.24286 26.7255C4.24698 26.7371 4.25305 26.7513 4.26156 26.7677C4.27857 26.8005 4.30399 26.8417 4.33701 26.8903C4.40308 26.9876 4.49932 27.1133 4.61889 27.2581C4.85795 27.5477 5.19042 27.9129 5.56341 28.2781C6.03393 28.7387 6.40617 29.0474 6.70867 29.2211C7.01126 29.3949 7.24087 29.4319 7.42873 29.3552C7.50402 29.3225 7.65406 29.2885 7.85899 29.2543C8.06484 29.22 8.32795 29.1854 8.63039 29.1516C9.08412 29.1009 9.62685 29.0525 10.1986 29.0113L10.7782 28.9725C14.6452 28.7816 17.3433 29.4502 20.82 31.5178C24.0182 33.4093 25.9163 34.4732 27.603 35.1041C29.1836 35.6957 30.5792 35.907 32.6866 36.0622L33.118 36.0927L35.8697 36.3145Z" fill="url(#paint16_linear_4_744)" stroke="url(#paint17_linear_4_744)" stroke-width="0.1"/>
<path d="M29.2549 40.8288C30.1002 40.9244 30.5427 40.9635 30.9242 40.8415C31.3055 40.7197 31.6274 40.4365 32.2289 39.8796C32.5534 39.5462 32.8531 39.221 33.0716 38.9591C33.181 38.8282 33.27 38.7134 33.3313 38.6219C33.3622 38.5761 33.3859 38.536 33.4018 38.5033C33.418 38.4699 33.4251 38.4451 33.4251 38.4289C33.4251 38.3987 33.3985 38.365 33.3372 38.331C33.2771 38.2977 33.1894 38.2675 33.0807 38.242C32.8901 38.1969 32.6372 38.167 32.3602 38.1603L32.24 38.1588C29.1187 38.127 25.6091 36.8536 20.6408 33.8972C17.1033 31.8 15.1578 31.1339 12.3368 31.0069C11.6715 30.9751 10.9979 30.9595 10.4544 30.9635C10.1827 30.9654 9.94362 30.9722 9.75434 30.9846C9.5644 30.997 9.42628 31.0148 9.35547 31.038L9.35518 31.0382L9.23723 31.0752C9.1234 31.1133 9.02239 31.1548 8.94424 31.1959C8.8921 31.2235 8.8508 31.2505 8.82281 31.276C8.79427 31.3021 8.78223 31.3239 8.78223 31.3409C8.78223 31.34 8.78223 31.3401 8.78317 31.3425C8.78401 31.3445 8.78541 31.3474 8.78762 31.3511C8.7921 31.3586 8.79908 31.3688 8.80856 31.381C8.82742 31.4052 8.85531 31.4377 8.89161 31.4772C8.96437 31.5563 9.06973 31.6633 9.1995 31.7905C9.45901 32.0445 9.81609 32.3779 10.2055 32.7275C10.8713 33.3318 11.2672 33.6554 11.7389 33.841C12.2107 34.0266 12.7599 34.0746 13.7345 34.1223C16.2713 34.2494 18.4822 35.1731 21.4382 37.3676C24.0666 39.3053 26.9211 40.5751 29.2549 40.8288Z" fill="url(#paint18_linear_4_744)" stroke="url(#paint19_linear_4_744)" stroke-width="0.1"/>
<path d="M25.1996 46.0848C25.4284 46.0708 25.6465 46.0006 25.8696 45.8792C26.3166 45.6357 26.7816 45.1885 27.3909 44.5842C27.7965 44.1869 28.1697 43.7978 28.4413 43.4921C28.5771 43.3392 28.6875 43.2076 28.7637 43.1062C28.8018 43.0557 28.8311 43.0127 28.8509 42.979C28.8608 42.9622 28.8683 42.9476 28.8731 42.9358C28.8781 42.9237 28.8798 42.9155 28.8798 42.9104C28.8797 42.9005 28.874 42.8872 28.8579 42.871C28.842 42.8548 28.8177 42.8373 28.7856 42.8189C28.7215 42.782 28.6284 42.7426 28.5133 42.7032C28.3405 42.6437 28.1195 42.5843 27.8763 42.5315L27.6267 42.481C25.6417 42.1726 23.5359 41.1771 20.7493 39.2363L20.4772 39.0456C18.9521 37.9496 17.3216 37.0202 16.0729 36.4725C15.4483 36.1985 14.9202 36.0205 14.549 35.9643C14.3631 35.936 14.2186 35.9388 14.1216 35.9735C14.0735 35.9906 14.0377 36.0158 14.0138 36.0479C13.99 36.0803 13.9771 36.121 13.9771 36.1718C13.9771 36.1718 13.9777 36.175 13.9818 36.1829C13.9857 36.1903 13.9919 36.1998 14.0002 36.2119C14.0169 36.2357 14.0419 36.2675 14.075 36.3075C14.1413 36.387 14.2393 36.497 14.3655 36.634C14.6179 36.908 14.9832 37.2894 15.4336 37.7503C16.3345 38.6718 17.5762 39.9114 18.9398 41.2464C20.4089 42.6688 21.5207 43.739 22.3999 44.507C23.2795 45.2753 23.9252 45.7396 24.4621 45.951C24.7302 46.0569 24.9708 46.0988 25.1996 46.0848Z" fill="url(#paint20_linear_4_744)" stroke="url(#paint21_linear_4_744)" stroke-width="0.1"/>
<path d="M24.8379 45.7714V68.0214" stroke="url(#paint22_linear_4_744)" stroke-width="3"/>
<path d="M15.2598 68.1804H34.7403" stroke="url(#paint23_linear_4_744)" stroke-width="3"/>
<path d="M10.7273 8.22106L9.95588 9.97181C9.27795 11.5204 8.74419 12.7601 8.35458 13.6907C7.96497 14.6214 7.60652 15.5674 7.27925 16.5286H3.78445C3.46497 15.5826 3.11042 14.6481 2.72081 13.7251C2.33899 12.7944 1.82471 11.6043 1.17795 10.1549C1.06886 9.91079 0.784447 9.26617 0.324707 8.22106H3.57406C3.80782 8.96103 4.15458 9.91079 4.61432 11.0703C5.01951 12.0926 5.34679 12.9775 5.59614 13.7251C5.75977 13.1987 5.95458 12.638 6.18055 12.043C6.41432 11.4403 6.55458 11.0741 6.60133 10.9445C7.05328 9.77729 7.38445 8.86949 7.59484 8.22106H10.7273ZM18.1414 10.4982C17.2142 10.4524 16.5284 10.4257 16.0843 10.4181V14.3315C16.5362 14.3239 17.2219 14.2972 18.1414 14.2514V16.5286H11.3505V14.2514C12.2466 14.2972 12.9284 14.3239 13.396 14.3315V10.4181C12.9284 10.4257 12.2466 10.4524 11.3505 10.4982V8.22106H18.1414V10.4982ZM25.9274 12.3977C27.704 12.3977 28.5923 12.9508 28.5923 14.0569C28.5923 14.5757 28.4716 15.0181 28.23 15.3843C27.9884 15.7428 27.556 16.0251 26.9326 16.2311C26.3092 16.4294 25.4443 16.5286 24.3378 16.5286H19.0781C19.1404 15.0486 19.1716 13.664 19.1716 12.3748C19.1716 11.0856 19.1404 9.701 19.0781 8.22106H21.8248V8.2325H24.3144C25.2806 8.2325 26.0404 8.3126 26.5936 8.4728C27.1547 8.62537 27.5482 8.85042 27.7742 9.14793C28.0079 9.44544 28.1248 9.82306 28.1248 10.2808C28.1248 10.7461 27.9573 11.1619 27.6222 11.528C27.2949 11.8866 26.73 12.1765 25.9274 12.3977ZM21.8248 10.3151V11.3793H24.069C24.5521 11.3793 24.8871 11.3373 25.0742 11.2534C25.269 11.1695 25.3664 11.0169 25.3664 10.7957C25.3664 10.6202 25.2651 10.4982 25.0625 10.4295C24.8677 10.3532 24.5365 10.3151 24.069 10.3151H21.8248ZM24.069 14.4345C24.4742 14.4345 24.7819 14.4193 24.9923 14.3888C25.2105 14.3506 25.3664 14.2896 25.4599 14.2057C25.5534 14.1141 25.6001 13.9921 25.6001 13.8395C25.6001 13.6412 25.4871 13.5 25.2612 13.4161C25.043 13.3246 24.6456 13.2788 24.069 13.2788H21.8248V14.4345H24.069ZM38.9078 10.9902C38.9078 11.6539 38.7403 12.2146 38.4052 12.6723C38.078 13.13 37.513 13.4619 36.7104 13.6679C36.8039 13.7899 36.8702 13.8853 36.9091 13.9539L38.8026 16.5286H35.6234C35.2806 15.903 34.739 15.0181 33.9987 13.8738H32.2806V16.5286H29.5222C29.5845 15.0486 29.6157 13.664 29.6157 12.3748C29.6157 11.0856 29.5845 9.701 29.5222 8.22106H32.2806V8.2325H34.6767C36.2507 8.2325 37.3494 8.48043 37.9728 8.97629C38.5961 9.47214 38.9078 10.1435 38.9078 10.9902ZM32.2806 10.4295V11.734H33.8585C34.5208 11.734 35.0195 11.7149 35.3546 11.6768C35.6974 11.631 35.9351 11.5624 36.0676 11.4708C36.2 11.3793 36.2663 11.2458 36.2663 11.0703C36.2663 10.9025 36.2039 10.7728 36.0793 10.6813C35.9546 10.5897 35.7208 10.5249 35.378 10.4867C35.0351 10.4486 34.5286 10.4295 33.8585 10.4295H32.2806ZM46.5198 16.5286C46.3718 16.0937 46.1731 15.5483 45.9237 14.8922H42.1952L41.6107 16.5286H38.677L41.9497 8.22106H46.251L49.5471 16.5286H46.5198ZM45.2575 13.1072C44.9614 12.3062 44.6575 11.5052 44.3458 10.7042L44.0653 9.96037C43.7926 10.6546 43.3913 11.7035 42.8614 13.1072H45.2575Z" fill="url(#paint24_linear_4_744)"/>
<path d="M5.22061 72.5871C6.36 72.5871 7.26 72.7235 7.92062 72.9965C8.58123 73.2635 9.04182 73.6373 9.30243 74.1179C9.56909 74.5925 9.70243 75.177 9.70243 75.8712C9.70243 76.5298 9.55091 77.1055 9.24789 77.5978C8.94487 78.0902 8.49032 78.4729 7.88425 78.7459C7.27818 79.0129 6.53273 79.1464 5.64789 79.1464C5.1085 79.1464 4.56 79.1464 4.00243 79.1464C3.44487 79.1464 2.88122 79.1436 2.31152 79.1375C2.36001 77.9688 2.38425 76.8798 2.38425 75.8712C2.38425 74.8506 2.36001 73.7858 2.31152 72.6761C3.03273 72.6167 4.00243 72.5871 5.22061 72.5871ZM5.90243 77.3753C6.46607 77.3753 6.84182 77.2418 7.02971 76.9748C7.2176 76.7078 7.31152 76.3401 7.31152 75.8712C7.31152 75.4202 7.21152 75.0553 7.01152 74.7765C6.8176 74.4978 6.44789 74.3582 5.90243 74.3582C5.31454 74.3582 4.87516 74.376 4.58425 74.4116V77.3753H5.90243ZM17.7259 74.8388C17.7259 75.355 17.5956 75.7911 17.335 76.1471C17.0804 76.5031 16.641 76.7612 16.0168 76.9214C16.0895 77.0165 16.141 77.0905 16.1713 77.1439L17.6441 79.1464H15.1713C14.9047 78.6598 14.4834 77.9716 13.9077 77.0816H12.5713V79.1464H10.4259C10.4743 77.9955 10.4986 76.9186 10.4986 75.9157C10.4986 74.9129 10.4743 73.836 10.4259 72.685H12.5713V72.6939H14.435C15.6592 72.6939 16.5138 72.8869 16.9986 73.2724C17.4834 73.658 17.7259 74.1802 17.7259 74.8388ZM12.5713 74.4027V75.4173H13.7986C14.3138 75.4173 14.7016 75.4024 14.9622 75.3728C15.2289 75.3372 15.4138 75.2838 15.5168 75.2126C15.6198 75.1414 15.6713 75.0375 15.6713 74.9011C15.6713 74.7705 15.6229 74.6697 15.5259 74.5985C15.4289 74.5273 15.2471 74.4768 14.9804 74.4472C14.7138 74.4177 14.3198 74.4027 13.7986 74.4027H12.5713ZM23.7332 74.4561C23.012 74.4205 22.4787 74.3999 22.1332 74.3938V77.4376C22.4848 77.4316 23.0181 77.4109 23.7332 77.3753V79.1464H18.4514V77.3753C19.1484 77.4109 19.6787 77.4316 20.0423 77.4376V74.3938C19.6787 74.3999 19.1484 74.4205 18.4514 74.4561V72.685H23.7332V74.4561ZM32.089 72.6939C32.0466 73.6968 32.0254 74.7705 32.0254 75.9157C32.0254 77.0667 32.0466 78.1436 32.089 79.1464H28.8345L26.6345 74.287L26.7981 79.1464H24.4618C24.5102 77.9955 24.5345 76.9186 24.5345 75.9157C24.5345 74.9189 24.5102 73.8449 24.4618 72.6939H27.8072L30.0163 77.6868L29.8618 72.6939H32.089ZM37.5612 79.1464C37.2765 78.642 36.8037 77.8709 36.143 76.8324L35.0794 77.8648V79.1464H32.8157C32.8641 77.9955 32.8885 76.9186 32.8885 75.9157C32.8885 74.9129 32.8641 73.836 32.8157 72.685H35.0794V75.2927C36.1946 74.213 36.9885 73.3436 37.4612 72.685H40.4067L37.543 75.4618C37.9674 76.0432 38.443 76.6751 38.9703 77.3575C39.5037 78.04 39.9856 78.6363 40.4157 79.1464H37.5612ZM41.1433 78.381C41.3492 78.0784 41.519 77.7965 41.6524 77.5355C41.7917 77.2746 41.9252 76.972 42.0524 76.6277C42.4826 76.8709 42.9826 77.061 43.5524 77.1973C44.1219 77.3337 44.6524 77.402 45.1433 77.402C45.6463 77.402 46.0008 77.3604 46.207 77.2774C46.4128 77.1884 46.5161 77.0934 46.5161 76.9926C46.5161 76.6306 45.9524 76.4497 44.8252 76.4497C43.5888 76.4497 42.6917 76.3251 42.1343 76.0759C41.5765 75.8207 41.2979 75.4113 41.2979 74.8477C41.2979 74.0467 41.6372 73.4565 42.3161 73.0766C42.9946 72.6968 43.8765 72.507 44.9615 72.507C45.5917 72.507 46.2372 72.5871 46.8979 72.7473C47.5644 72.9015 48.1645 73.1151 48.6979 73.3881C48.5219 73.7797 48.3372 74.2575 48.1433 74.821C48.107 74.9396 48.0765 75.0286 48.0524 75.088C47.7433 74.8449 47.2765 74.643 46.6524 74.4828C46.0281 74.3166 45.4765 74.2336 44.9979 74.2336C44.4219 74.2336 44.0343 74.2721 43.8343 74.3493C43.6343 74.4205 43.5343 74.5273 43.5343 74.6697C43.5343 74.8121 43.6706 74.9278 43.9433 75.0168C44.2219 75.0998 44.6219 75.1414 45.1433 75.1414C46.4281 75.1414 47.3615 75.2867 47.9433 75.5775C48.5252 75.8623 48.8161 76.3013 48.8161 76.8947C48.8161 77.7253 48.507 78.3248 47.8888 78.6925C47.2706 79.0546 46.3343 79.2354 45.0797 79.2354C44.407 79.2354 43.7219 79.1642 43.0252 79.0218C42.3281 78.8734 41.7008 78.6598 41.1433 78.381Z" fill="url(#paint25_linear_4_744)"/>
<path d="M16.9905 3.68972L15.1728 2.40882C14.9393 2.2383 14.7935 2.2182 14.5399 2.24921L12.8142 2.43326C12.5838 2.45821 12.5671 2.49853 12.5049 2.71104L11.8346 5.03254C11.7525 5.30465 11.7435 5.36273 11.9575 5.52502L13.6174 6.79464C13.7907 6.92493 13.9187 6.94953 14.0636 6.93777L16.0364 6.8188C16.2756 6.79976 16.3124 6.78425 16.3901 6.5141L17.1044 4.03199C17.1552 3.85993 17.1101 3.77115 16.9908 3.68978L16.9905 3.68972ZM14.1806 5.5953C13.8228 6.67395 13.8125 6.67195 12.7385 5.87273C12.0819 5.3844 11.9699 5.25135 12.1086 4.77441L12.5785 3.15902C12.6873 2.78515 12.7151 2.75707 13.3751 3.26821C14.6316 4.24161 14.6198 4.2714 14.1806 5.5953ZM14.3333 3.75361L13.341 2.99544C13.0321 2.75939 12.9619 2.61107 13.6481 2.53828C14.8321 2.41259 14.8372 2.41453 15.6287 2.96814C16.4946 3.5736 16.8157 3.82913 16.1309 3.91822C15.3136 4.02455 14.7275 4.05471 14.3333 3.75361ZM16.5517 5.24871C16.1663 6.58946 16.104 6.62786 14.8995 6.69003C14.1377 6.72919 14.0152 6.7461 14.1363 6.37593L14.6648 4.76175C14.8195 4.28951 14.8721 4.26577 15.8312 4.15579C16.881 4.03564 16.8793 4.10907 16.5517 5.24871ZM13.4771 4.13202C13.2756 4.71566 12.7209 4.08799 12.3447 4.56297C11.8431 5.19611 12.6882 5.68961 13.195 6.06179C13.6347 6.38451 13.8972 6.18143 14.0727 5.57426C14.4496 4.26984 13.7231 3.41951 13.4771 4.13202ZM14.7469 6.45962C15.6087 6.71899 16.2652 6.22002 16.4989 4.91506C16.6092 4.29943 15.9444 4.17664 15.8437 4.78454C15.7967 5.06833 15.4226 5.54314 15.0735 5.50659C14.3869 5.43447 14.1414 6.2773 14.7469 6.45962ZM15.5667 4.39075C14.8046 4.24927 14.7235 4.71738 14.8785 5.06133C15.2386 5.86052 16.3651 4.539 15.5667 4.39075ZM15.0062 3.86918C16.5379 3.94133 16.5046 3.46254 15.3581 3.01643C14.3036 2.60605 13.9352 3.81861 15.0062 3.86918Z" fill="url(#paint26_linear_4_744)"/>
<path d="M17.8535 4.04076L19.4298 4.0317" stroke="url(#paint27_linear_4_744)"/>
<path d="M9.41455 3.98224L10.9908 3.97318" stroke="url(#paint28_linear_4_744)"/>
<path d="M17.1099 1.73558L18.3851 0.828507" stroke="url(#paint29_linear_4_744)"/>
<path d="M10.4824 0.82934L11.7577 1.73641" stroke="url(#paint30_linear_4_744)"/>
<path d="M14.782 1.54413L14.7729 0.000955582" stroke="url(#paint31_linear_4_744)"/>
</g>
<defs>
<linearGradient id="paint0_linear_4_744" x1="24.8083" y1="87.5329" x2="25.3115" y2="88.5786" gradientUnits="userSpaceOnUse">
<stop offset="0.1" stop-color="#FFB001"/>
<stop offset="1" stop-color="#996A01"/>
</linearGradient>
<linearGradient id="paint1_linear_4_744" x1="24.8083" y1="87.5329" x2="25.3115" y2="88.5786" gradientUnits="userSpaceOnUse">
<stop offset="0.1" stop-color="#FFB001"/>
<stop offset="1" stop-color="#996A01"/>
</linearGradient>
<linearGradient id="paint2_linear_4_744" x1="24.0428" y1="82.4259" x2="21.7203" y2="89.3694" gradientUnits="userSpaceOnUse">
<stop offset="0.1" stop-color="#FFB001"/>
<stop offset="1" stop-color="#996A01"/>
</linearGradient>
<linearGradient id="paint3_linear_4_744" x1="22.9796" y1="83.8841" x2="21.9806" y2="86.8773" gradientUnits="userSpaceOnUse">
<stop offset="0.1" stop-color="#FFB001"/>
<stop offset="1" stop-color="#996A01"/>
</linearGradient>
<linearGradient id="paint4_linear_4_744" x1="22.9796" y1="83.8841" x2="21.9806" y2="86.8773" gradientUnits="userSpaceOnUse">
<stop offset="0.1" stop-color="#FFB001"/>
<stop offset="1" stop-color="#996A01"/>
</linearGradient>
<linearGradient id="paint5_linear_4_744" x1="31.1859" y1="82.4259" x2="28.8633" y2="89.3694" gradientUnits="userSpaceOnUse">
<stop offset="0.1" stop-color="#FFB001"/>
<stop offset="1" stop-color="#996A01"/>
</linearGradient>
<linearGradient id="paint6_linear_4_744" x1="29.4084" y1="83.8841" x2="28.4093" y2="86.8773" gradientUnits="userSpaceOnUse">
<stop offset="0.1" stop-color="#FFB001"/>
<stop offset="1" stop-color="#996A01"/>
</linearGradient>
<linearGradient id="paint7_linear_4_744" x1="29.4084" y1="83.8841" x2="28.4093" y2="86.8773" gradientUnits="userSpaceOnUse">
<stop offset="0.1" stop-color="#FFB001"/>
<stop offset="1" stop-color="#996A01"/>
</linearGradient>
<linearGradient id="paint8_linear_4_744" x1="25.2825" y1="82.9286" x2="24.2597" y2="84.1541" gradientUnits="userSpaceOnUse">
<stop offset="0.1" stop-color="#FFB001"/>
<stop offset="1" stop-color="#996A01"/>
</linearGradient>
<linearGradient id="paint9_linear_4_744" x1="25.2825" y1="82.9286" x2="24.2597" y2="84.1541" gradientUnits="userSpaceOnUse">
<stop offset="0.1" stop-color="#FFB001"/>
<stop offset="1" stop-color="#996A01"/>
</linearGradient>
<linearGradient id="paint10_linear_4_744" x1="-nan" y1="-nan" x2="-nan" y2="-nan" gradientUnits="userSpaceOnUse">
<stop offset="0.1" stop-color="#FFB001"/>
<stop offset="1" stop-color="#996A01"/>
</linearGradient>
<linearGradient id="paint11_linear_4_744" x1="-nan" y1="-nan" x2="-nan" y2="-nan" gradientUnits="userSpaceOnUse">
<stop offset="0.1" stop-color="#FFB001"/>
<stop offset="1" stop-color="#996A01"/>
</linearGradient>
<linearGradient id="paint12_linear_4_744" x1="44.7352" y1="30.2947" x2="43.7538" y2="17.1999" gradientUnits="userSpaceOnUse">
<stop offset="0.1" stop-color="#FFB001"/>
<stop offset="1" stop-color="#996A01"/>
</linearGradient>
<linearGradient id="paint13_linear_4_744" x1="44.7352" y1="30.2947" x2="43.7538" y2="17.1999" gradientUnits="userSpaceOnUse">
<stop offset="0.1" stop-color="#FFB001"/>
<stop offset="1" stop-color="#996A01"/>
</linearGradient>
<linearGradient id="paint14_linear_4_744" x1="38.0847" y1="30.5961" x2="36.6258" y2="23.8791" gradientUnits="userSpaceOnUse">
<stop offset="0.1" stop-color="#FFB001"/>
<stop offset="1" stop-color="#996A01"/>
</linearGradient>
<linearGradient id="paint15_linear_4_744" x1="38.0847" y1="30.5961" x2="36.6258" y2="23.8791" gradientUnits="userSpaceOnUse">
<stop offset="0.1" stop-color="#FFB001"/>
<stop offset="1" stop-color="#996A01"/>
</linearGradient>
<linearGradient id="paint16_linear_4_744" x1="36.6904" y1="36.5501" x2="35.2051" y2="22.5585" gradientUnits="userSpaceOnUse">
<stop offset="0.1" stop-color="#FFB001"/>
<stop offset="1" stop-color="#996A01"/>
</linearGradient>
<linearGradient id="paint17_linear_4_744" x1="36.6904" y1="36.5501" x2="35.2051" y2="22.5585" gradientUnits="userSpaceOnUse">
<stop offset="0.1" stop-color="#FFB001"/>
<stop offset="1" stop-color="#996A01"/>
</linearGradient>
<linearGradient id="paint18_linear_4_744" x1="31.8286" y1="41.1358" x2="30.0595" y2="28.315" gradientUnits="userSpaceOnUse">
<stop offset="0.1" stop-color="#FFB001"/>
<stop offset="1" stop-color="#996A01"/>
</linearGradient>
<linearGradient id="paint19_linear_4_744" x1="31.8286" y1="41.1358" x2="30.0595" y2="28.315" gradientUnits="userSpaceOnUse">
<stop offset="0.1" stop-color="#FFB001"/>
<stop offset="1" stop-color="#996A01"/>
</linearGradient>
<linearGradient id="paint20_linear_4_744" x1="27.9198" y1="46.3096" x2="24.9865" y2="33.6805" gradientUnits="userSpaceOnUse">
<stop offset="0.1" stop-color="#FFB001"/>
<stop offset="1" stop-color="#996A01"/>
</linearGradient>
<linearGradient id="paint21_linear_4_744" x1="27.9198" y1="46.3096" x2="24.9865" y2="33.6805" gradientUnits="userSpaceOnUse">
<stop offset="0.1" stop-color="#FFB001"/>
<stop offset="1" stop-color="#996A01"/>
</linearGradient>
<linearGradient id="paint22_linear_4_744" x1="-nan" y1="-nan" x2="-nan" y2="-nan" gradientUnits="userSpaceOnUse">
<stop offset="0.1" stop-color="#FFB001"/>
<stop offset="1" stop-color="#996A01"/>
</linearGradient>
<linearGradient id="paint23_linear_4_744" x1="-nan" y1="-nan" x2="-nan" y2="-nan" gradientUnits="userSpaceOnUse">
<stop offset="0.1" stop-color="#FFB001"/>
<stop offset="1" stop-color="#996A01"/>
</linearGradient>
<linearGradient id="paint24_linear_4_744" x1="46.7533" y1="2.84399" x2="44.3316" y2="24.1922" gradientUnits="userSpaceOnUse">
<stop offset="0.1" stop-color="#FFB001"/>
<stop offset="1" stop-color="#996A01"/>
</linearGradient>
<linearGradient id="paint25_linear_4_744" x1="46.2524" y1="68.3933" x2="44.6682" y2="85.2938" gradientUnits="userSpaceOnUse">
<stop offset="0.1" stop-color="#FFB001"/>
<stop offset="1" stop-color="#996A01"/>
</linearGradient>
<linearGradient id="paint26_linear_4_744" x1="17.1152" y1="2.70345" x2="13.9433" y2="7.72579" gradientUnits="userSpaceOnUse">
<stop offset="0.1" stop-color="#FFB001"/>
<stop offset="1" stop-color="#996A01"/>
</linearGradient>
<linearGradient id="paint27_linear_4_744" x1="19.3277" y1="4.1881" x2="19.3004" y2="4.61109" gradientUnits="userSpaceOnUse">
<stop offset="0.1" stop-color="#FFB001"/>
<stop offset="1" stop-color="#996A01"/>
</linearGradient>
<linearGradient id="paint28_linear_4_744" x1="10.8887" y1="4.12961" x2="10.8614" y2="4.55261" gradientUnits="userSpaceOnUse">
<stop offset="0.1" stop-color="#FFB001"/>
<stop offset="1" stop-color="#996A01"/>
</linearGradient>
<linearGradient id="paint29_linear_4_744" x1="18.3933" y1="1.01116" x2="18.611" y2="1.36715" gradientUnits="userSpaceOnUse">
<stop offset="0.1" stop-color="#FFB001"/>
<stop offset="1" stop-color="#996A01"/>
</linearGradient>
<linearGradient id="paint30_linear_4_744" x1="11.5828" y1="1.8005" x2="11.3171" y2="2.12373" gradientUnits="userSpaceOnUse">
<stop offset="0.1" stop-color="#FFB001"/>
<stop offset="1" stop-color="#996A01"/>
</linearGradient>
<linearGradient id="paint31_linear_4_744" x1="14.9293" y1="0.100938" x2="15.3521" y2="0.128764" gradientUnits="userSpaceOnUse">
<stop offset="0.1" stop-color="#FFB001"/>
<stop offset="1" stop-color="#996A01"/>
</linearGradient>
<clipPath id="clip0_4_744">
<rect width="50" height="89" fill="white"/>
</clipPath>
</defs>
</svg>
