<svg width="78" height="139" viewBox="0 0 78 139" fill="none" xmlns="http://www.w3.org/2000/svg">
<g clip-path="url(#clip0_5_838)">
<path d="M38.7136 136.738L37.9248 137.511L38.7136 138.284L39.5023 137.511L38.7136 136.738Z" fill="url(#paint0_linear_5_838)" stroke="url(#paint1_linear_5_838)"/>
<path d="M33.4288 137.906C35.8904 137.906 37.886 135.945 37.886 133.528C37.886 131.11 35.8904 129.15 33.4288 129.15C30.9672 129.15 28.9717 131.11 28.9717 133.528C28.9717 135.945 30.9672 137.906 33.4288 137.906Z" stroke="url(#paint2_linear_5_838)"/>
<path d="M34.0872 134.814C35.0662 134.814 35.8599 134.036 35.8599 133.076C35.8599 132.116 35.0662 131.339 34.0872 131.339C33.1081 131.339 32.3145 132.116 32.3145 133.076C32.3145 134.036 33.1081 134.814 34.0872 134.814Z" fill="url(#paint3_linear_5_838)" stroke="url(#paint4_linear_5_838)"/>
<path d="M44.5714 137.906C47.033 137.906 49.0285 135.945 49.0285 133.528C49.0285 131.11 47.033 129.15 44.5714 129.15C42.1098 129.15 40.1143 131.11 40.1143 133.528C40.1143 135.945 42.1098 137.906 44.5714 137.906Z" stroke="url(#paint5_linear_5_838)"/>
<path d="M44.1155 134.814C45.0946 134.814 45.8882 134.036 45.8882 133.076C45.8882 132.116 45.0946 131.339 44.1155 131.339C43.1365 131.339 42.3428 132.116 42.3428 133.076C42.3428 134.036 43.1365 134.814 44.1155 134.814Z" fill="url(#paint6_linear_5_838)" stroke="url(#paint7_linear_5_838)"/>
<path d="M39.0137 129.836C39.0449 129.868 39.0848 129.929 39.1235 130.024C39.2004 130.212 39.2536 130.49 39.2536 130.809C39.2536 131.128 39.2004 131.406 39.1235 131.594C39.0848 131.689 39.0449 131.75 39.0137 131.782C39.009 131.787 39.0038 131.789 39.0003 131.792C38.9969 131.789 38.9917 131.787 38.9869 131.782C38.9557 131.75 38.9159 131.689 38.8771 131.594C38.8002 131.406 38.7471 131.128 38.7471 130.809C38.7471 130.49 38.8002 130.212 38.8771 130.024C38.9159 129.929 38.9557 129.868 38.9869 129.836C38.9918 129.831 38.9968 129.828 39.0003 129.825C39.0038 129.828 39.0089 129.831 39.0137 129.836Z" fill="url(#paint8_linear_5_838)" stroke="url(#paint9_linear_5_838)"/>
<path d="M0 130.561H23.9433" stroke="url(#paint10_linear_5_838)"/>
<path d="M23.4824 130.561C25.7183 130.561 26.1487 132.094 23.4824 133.043" stroke="#FFB001"/>
<path d="M78 130.561H54.0567" stroke="#FFB001"/>
<path d="M54.5165 130.561C52.2809 130.561 51.8503 132.094 54.5165 133.043" stroke="#FFB001"/>
<path d="M0 127.582H78" stroke="url(#paint11_linear_5_838)"/>
<path d="M63.4457 46.9702C63.6376 46.9625 63.8884 46.9137 64.2176 46.8393C66.2866 46.3447 67.5989 45.4058 71.195 41.8314L74.4295 38.6124V31.2997H3.06445V34.5018C3.06445 35.3948 3.1023 36.2008 3.17179 36.7827C3.20655 37.0739 3.2492 37.308 3.29841 37.4687C3.32307 37.5493 3.34911 37.6101 3.37557 37.65C3.40258 37.6907 3.42605 37.7038 3.44432 37.7039C3.4669 37.7039 3.50438 37.699 3.55611 37.6888C3.60746 37.6787 3.67165 37.6635 3.74654 37.6442C3.89632 37.6056 4.08908 37.55 4.31041 37.4818C4.75316 37.3454 5.31014 37.1591 5.86698 36.9607C9.26464 35.8175 15.0431 35.3207 19.1995 35.8175C24.3701 36.4137 29.4887 38.2025 36.9352 41.9759C40.1268 43.5896 42.0371 44.5072 43.1492 44.8788C43.4269 44.9716 43.6539 45.0299 43.8382 45.0567C44.0227 45.0836 44.1625 45.0785 44.2665 45.046C44.3693 45.0139 44.4382 44.9547 44.4822 44.87C44.5267 44.7843 44.5465 44.6707 44.5465 44.5297C44.5465 44.5037 44.5541 44.4727 44.5672 44.4381C44.5805 44.4033 44.6 44.3632 44.6251 44.3184C44.6755 44.2285 44.7494 44.1174 44.8437 43.9887C45.0327 43.7311 45.3058 43.4 45.6416 43.0182C46.3132 42.2543 47.2379 41.2858 48.2512 40.2926C49.4034 39.1634 50.313 38.3119 51.0974 37.7266C51.8814 37.1415 52.5429 36.8205 53.1983 36.7546C53.8547 36.6888 54.5015 36.8789 55.2552 37.3078C56.0083 37.7364 56.8704 38.405 57.9593 39.2983C60.1109 41.0848 61.329 42.154 62.0088 43.0128C62.3486 43.4428 62.5548 43.8209 62.6753 44.2107C62.7958 44.6003 62.8308 45.0005 62.8308 45.4732C62.8308 45.8704 62.8369 46.1729 62.8668 46.3991C62.8966 46.6259 62.9498 46.7707 63.0385 46.8577C63.1261 46.9436 63.2537 46.9778 63.4457 46.9702Z" fill="url(#paint12_linear_5_838)" stroke="url(#paint13_linear_5_838)" stroke-width="0.1"/>
<path d="M54.5005 47.4342C56.452 47.5832 57.4868 47.6445 58.1346 47.5335C58.4572 47.4783 58.6826 47.3801 58.8771 47.2296C59.0726 47.0784 59.2388 46.8732 59.4414 46.6003C59.6688 46.2788 59.8704 45.9325 60.0152 45.6297C60.0876 45.4784 60.1459 45.3382 60.1859 45.2176C60.2259 45.0967 60.2472 44.9973 60.2472 44.9268C60.2472 44.913 60.2421 44.8934 60.231 44.8677C60.2198 44.8422 60.2031 44.8123 60.1803 44.778C60.1353 44.7092 60.0684 44.6248 59.9823 44.5268C59.8101 44.3309 59.5629 44.0825 59.2636 43.8011C58.6649 43.2385 57.8596 42.5439 57.0335 41.8677C56.2079 41.1916 55.3616 40.5341 54.6808 40.0459C54.3405 39.8017 54.0411 39.6003 53.8071 39.4598C53.6906 39.3896 53.5898 39.3349 53.5088 39.2978C53.4273 39.2603 53.3685 39.2426 53.3336 39.2426C53.3224 39.2426 53.3052 39.2463 53.2814 39.2557C53.2581 39.2649 53.2297 39.279 53.1963 39.2978C53.1299 39.3355 53.0464 39.3915 52.9476 39.4641C52.7501 39.6093 52.4923 39.8199 52.1919 40.0803C51.5907 40.6011 50.8188 41.3205 50.0086 42.1145C49.2239 42.9085 48.5027 43.6897 47.9777 44.3096C47.7153 44.6196 47.5023 44.8889 47.355 45.0989C47.2813 45.204 47.2242 45.2941 47.1858 45.3665C47.1467 45.4401 47.1289 45.492 47.1289 45.5226C47.129 45.7193 47.2889 45.9147 47.6166 46.1039C47.9429 46.2922 48.4281 46.47 49.0604 46.6343C50.3245 46.9625 52.1712 47.2356 54.5005 47.4342Z" fill="url(#paint14_linear_5_838)" stroke="url(#paint15_linear_5_838)" stroke-width="0.1"/>
<path d="M55.9566 56.716L58.3802 54.2919L60.7217 51.8991L54.3455 51.6037C50.5965 51.43 48.0359 51.1316 45.184 50.2808C42.3328 49.43 39.1908 48.0265 34.278 45.6438C31.2397 44.1083 27.1332 42.3549 24.8387 41.5696L24.4049 41.4256C22.5076 40.8305 19.9897 40.3592 17.6103 40.0987C15.2302 39.8381 12.9919 39.7892 11.6535 40.0367H11.653C10.1091 40.3344 8.84448 40.6444 7.96612 40.9355C7.52674 41.0811 7.18495 41.2215 6.95364 41.3529C6.83806 41.4186 6.75119 41.4814 6.69345 41.5405C6.63546 41.6 6.60938 41.6533 6.60938 41.7C6.60938 41.7083 6.61221 41.7213 6.6188 41.7398C6.62523 41.7579 6.6347 41.7801 6.64797 41.8057C6.67451 41.8569 6.71417 41.9213 6.76568 41.9972C6.86875 42.1491 7.01887 42.3455 7.20542 42.5717C7.57835 43.0239 8.097 43.5944 8.67886 44.1647C9.41287 44.8841 9.99356 45.3661 10.4655 45.6375C10.9375 45.9089 11.2957 45.9666 11.5888 45.8469C11.7062 45.7959 11.9403 45.7428 12.26 45.6893C12.5811 45.6357 12.9915 45.5817 13.4633 45.5289C14.1712 45.4497 15.0178 45.3741 15.9098 45.3098L16.814 45.2492C22.8464 44.9511 27.0554 45.9952 32.4791 49.2245C37.4683 52.1786 40.4294 53.8402 43.0606 54.8256C45.5264 55.7494 47.7034 56.0795 50.991 56.3218L51.6641 56.3695L55.9566 56.716Z" fill="url(#paint16_linear_5_838)" stroke="url(#paint17_linear_5_838)" stroke-width="0.1"/>
<path d="M45.6375 63.7662C46.9563 63.9157 47.6466 63.9767 48.2417 63.7861C48.8366 63.596 49.3387 63.1537 50.277 62.2839C50.7832 61.7632 51.2507 61.2553 51.5916 60.8463C51.7623 60.6417 51.9011 60.4625 51.9968 60.3195C52.0449 60.2481 52.0819 60.1855 52.1067 60.1344C52.132 60.0823 52.1432 60.0435 52.1432 60.0182C52.1432 59.9711 52.1016 59.9184 52.0059 59.8653C51.9122 59.8132 51.7754 59.766 51.6058 59.7263C51.3085 59.6558 50.9139 59.6092 50.4818 59.5987L50.2943 59.5963C45.4251 59.5466 39.9501 57.5579 32.1996 52.9406C26.681 49.6652 23.6462 48.6248 19.2454 48.4265C18.2075 48.3769 17.1567 48.3524 16.3088 48.3586C15.885 48.3617 15.512 48.3722 15.2167 48.3916C14.9204 48.411 14.7049 48.4389 14.5945 48.475L14.594 48.4755L14.41 48.5331C14.2324 48.5927 14.0748 48.6574 13.9529 48.7217C13.8716 48.7647 13.8072 48.807 13.7635 48.8468C13.719 48.8875 13.7002 48.9216 13.7002 48.9482C13.7002 48.9467 13.7002 48.947 13.7017 48.9506C13.703 48.9538 13.7052 48.9583 13.7086 48.9641C13.7156 48.9759 13.7265 48.9916 13.7413 49.0107C13.7707 49.0486 13.8142 49.0993 13.8708 49.161C13.9843 49.2846 14.1487 49.4517 14.3511 49.6503C14.756 50.0469 15.313 50.5677 15.9206 51.1138C16.9592 52.0575 17.5768 52.5629 18.3125 52.8528C19.0487 53.1427 19.9054 53.2176 21.4257 53.2921C25.3832 53.4907 28.8321 54.9333 33.4436 58.3606C37.5439 61.3869 41.9968 63.3701 45.6375 63.7662Z" fill="url(#paint18_linear_5_838)" stroke="url(#paint19_linear_5_838)" stroke-width="0.1"/>
<path d="M39.3118 71.9752C39.6688 71.9533 40.009 71.8436 40.357 71.654C41.0543 71.2737 41.7798 70.5753 42.7302 69.6315C43.363 69.011 43.9452 68.4034 44.3689 67.9258C44.5807 67.687 44.753 67.4815 44.8719 67.3232C44.9313 67.2442 44.9771 67.1772 45.0079 67.1246C45.0234 67.0983 45.0351 67.0754 45.0426 67.0571C45.0503 67.0382 45.0529 67.0253 45.0529 67.0174C45.0529 67.002 45.0439 66.9811 45.0188 66.9558C44.994 66.9305 44.9561 66.9032 44.9061 66.8744C44.8061 66.8168 44.6608 66.7552 44.4812 66.6937C44.2116 66.6009 43.8669 66.508 43.4875 66.4256L43.0982 66.3467C40.0016 65.8651 36.7166 64.3103 32.3693 61.2791L31.9449 60.9813C29.5657 59.2696 27.0222 57.818 25.0742 56.9627C24.0998 56.5348 23.276 56.2568 22.697 56.1689C22.407 56.1247 22.1816 56.1292 22.0302 56.1833C21.9551 56.2101 21.8993 56.2493 21.8621 56.2995C21.8249 56.3501 21.8047 56.4136 21.8047 56.4931C21.8047 56.4931 21.8056 56.498 21.8121 56.5104C21.8182 56.5219 21.8278 56.5368 21.8408 56.5556C21.8668 56.5929 21.9058 56.6425 21.9575 56.705C22.061 56.8291 22.2137 57.0009 22.4106 57.2149C22.8045 57.6428 23.3743 58.2385 24.077 58.9583C25.4823 60.3975 27.4194 62.3336 29.5465 64.4186C31.8384 66.6401 33.5727 68.3115 34.9443 69.5109C36.3165 70.7108 37.3238 71.4361 38.1614 71.7662C38.5796 71.9315 38.9549 71.997 39.3118 71.9752Z" fill="url(#paint20_linear_5_838)" stroke="url(#paint21_linear_5_838)" stroke-width="0.1"/>
<path d="M38.7471 71.4857V106.236" stroke="url(#paint22_linear_5_838)" stroke-width="3"/>
<path d="M23.8057 106.484H54.1953" stroke="url(#paint23_linear_5_838)" stroke-width="3"/>
<path d="M16.7349 12.8396L15.5315 15.574C14.4739 17.9926 13.6412 19.9286 13.0334 21.3822C12.4256 22.8357 11.8665 24.3131 11.3559 25.8143H5.90403C5.40564 24.3369 4.85255 22.8774 4.24476 21.4358C3.64912 19.9822 2.84684 18.1236 1.8379 15.8599C1.66772 15.4786 1.22403 14.4719 0.506836 12.8396H5.57582C5.9405 13.9953 6.48143 15.4786 7.19863 17.2896C7.83073 18.8861 8.34128 20.2682 8.73026 21.4358C8.98554 20.6137 9.28943 19.738 9.64195 18.8087C10.0066 17.8675 10.2254 17.2956 10.2984 17.093C11.0034 15.2701 11.52 13.8523 11.8482 12.8396H16.7349ZM28.3009 16.396C26.8544 16.3246 25.7847 16.2829 25.0918 16.2709V22.383C25.7968 22.3711 26.8665 22.3294 28.3009 22.2579V25.8143H17.7071V22.2579C19.105 22.3294 20.1687 22.3711 20.898 22.383V16.2709C20.1687 16.2829 19.105 16.3246 17.7071 16.396V12.8396H28.3009V16.396ZM40.447 19.3627C43.2186 19.3627 44.6043 20.2265 44.6043 21.9541C44.6043 22.7642 44.4159 23.4553 44.0391 24.0271C43.6623 24.5871 42.9876 25.0279 42.0151 25.3496C41.0427 25.6594 39.6934 25.8143 37.9672 25.8143H29.762C29.8593 23.5029 29.9079 21.3405 29.9079 19.327C29.9079 17.3134 29.8593 15.151 29.762 12.8396H34.047V12.8575H37.9308C39.4381 12.8575 40.6233 12.9826 41.4864 13.2328C42.3616 13.4711 42.9754 13.8226 43.328 14.2872C43.6926 14.7519 43.875 15.3416 43.875 16.0565C43.875 16.7833 43.6136 17.4326 43.0909 18.0045C42.5804 18.5644 41.6991 19.0172 40.447 19.3627ZM34.047 16.1101V17.7721H37.5479C38.3015 17.7721 38.8242 17.7066 39.116 17.5756C39.4199 17.4445 39.5718 17.2062 39.5718 16.8607C39.5718 16.5867 39.4138 16.396 39.0977 16.2888C38.7938 16.1697 38.2772 16.1101 37.5479 16.1101H34.047ZM37.5479 22.5438C38.18 22.5438 38.6601 22.52 38.9883 22.4723C39.3287 22.4128 39.5718 22.3174 39.7177 22.1864C39.8636 22.0434 39.9365 21.8528 39.9365 21.6145C39.9365 21.3047 39.7602 21.0843 39.4077 20.9533C39.0673 20.8103 38.4474 20.7388 37.5479 20.7388H34.047V22.5438H37.5479ZM60.6965 17.1645C60.6965 18.2011 60.4351 19.0768 59.9124 19.7916C59.4019 20.5065 58.5206 21.0247 57.2685 21.3464C57.4144 21.5371 57.5177 21.686 57.5785 21.7932L60.5324 25.8143H55.5728C55.0379 24.8373 54.1931 23.4553 53.0383 21.6681H50.3581V25.8143H46.0549C46.1522 23.5029 46.2008 21.3405 46.2008 19.327C46.2008 17.3134 46.1522 15.151 46.0549 12.8396H50.3581V12.8575H54.0959C56.5513 12.8575 58.2653 13.2447 59.2378 14.0191C60.2103 14.7936 60.6965 15.842 60.6965 17.1645ZM50.3581 16.2888V18.3262H52.8195C53.8527 18.3262 54.6307 18.2964 55.1534 18.2368C55.6883 18.1653 56.059 18.0581 56.2657 17.9151C56.4723 17.7721 56.5757 17.5636 56.5757 17.2896C56.5757 17.0275 56.4784 16.825 56.2839 16.682C56.0894 16.539 55.7248 16.4377 55.1899 16.3782C54.655 16.3186 53.8649 16.2888 52.8195 16.2888H50.3581ZM72.5712 25.8143C72.3403 25.1352 72.0303 24.2833 71.6413 23.2587H65.8247L64.913 25.8143H60.3364L65.4418 12.8396H72.1519L77.2938 25.8143H72.5712ZM70.602 20.4707C70.1401 19.2197 69.666 17.9687 69.1798 16.7177L68.7421 15.5561C68.3167 16.6403 67.6907 18.2785 66.8641 20.4707H70.602Z" fill="url(#paint24_linear_5_838)"/>
<path d="M8.14463 113.366C9.92206 113.366 11.3261 113.579 12.3566 114.006C13.3872 114.423 14.1057 115.007 14.5123 115.757C14.9282 116.498 15.1363 117.411 15.1363 118.496C15.1363 119.524 14.8999 120.423 14.4272 121.192C13.9545 121.961 13.2454 122.559 12.2999 122.985C11.3544 123.402 10.1915 123.611 8.81117 123.611C7.96974 123.611 7.11406 123.611 6.24426 123.611C5.37446 123.611 4.49517 123.606 3.60645 123.597C3.68208 121.771 3.7199 120.071 3.7199 118.496C3.7199 116.901 3.68208 115.238 3.60645 113.505C4.73153 113.413 6.24426 113.366 8.14463 113.366ZM9.20826 120.845C10.0875 120.845 10.6737 120.636 10.9668 120.219C11.2599 119.802 11.4064 119.228 11.4064 118.496C11.4064 117.791 11.2504 117.221 10.9384 116.786C10.6359 116.35 10.0592 116.133 9.20826 116.133C8.29116 116.133 7.60572 116.16 7.1519 116.216V120.845H9.20826ZM27.6528 116.883C27.6528 117.689 27.4496 118.37 27.043 118.926C26.6459 119.482 25.9605 119.886 24.9867 120.136C25.1001 120.284 25.1805 120.4 25.2277 120.483L27.5252 123.611H23.6677C23.2518 122.851 22.5946 121.776 21.6965 120.386H19.6117V123.611H16.2648C16.3405 121.813 16.3783 120.131 16.3783 118.565C16.3783 116.999 16.3405 115.317 16.2648 113.519H19.6117V113.533H22.519C24.4289 113.533 25.7619 113.835 26.5183 114.437C27.2746 115.039 27.6528 115.855 27.6528 116.883ZM19.6117 116.202V117.787H21.5263C22.3299 117.787 22.935 117.763 23.3416 117.717C23.7575 117.662 24.0459 117.578 24.2066 117.467C24.3674 117.356 24.4477 117.193 24.4477 116.98C24.4477 116.776 24.3721 116.619 24.2208 116.508C24.0695 116.397 23.7859 116.318 23.3699 116.272C22.9539 116.225 22.3394 116.202 21.5263 116.202H19.6117ZM37.0243 116.285C35.8993 116.23 35.0672 116.198 34.5283 116.188V120.942C35.0767 120.932 35.9087 120.9 37.0243 120.845V123.611H28.7847V120.845C29.872 120.9 30.6992 120.932 31.2665 120.942V116.188C30.6992 116.198 29.872 116.23 28.7847 116.285V113.519H37.0243V116.285ZM50.0593 113.533C49.9931 115.099 49.9601 116.776 49.9601 118.565C49.9601 120.363 49.9931 122.044 50.0593 123.611H44.9823L41.5503 116.021L41.8055 123.611H38.1608C38.2364 121.813 38.2743 120.131 38.2743 118.565C38.2743 117.008 38.2364 115.331 38.1608 113.533H43.3797L46.8259 121.331L46.5848 113.533H50.0593ZM58.5959 123.611C58.1517 122.823 57.4143 121.619 56.3836 119.997L54.7243 121.609V123.611H51.193C51.2685 121.813 51.3065 120.131 51.3065 118.565C51.3065 116.999 51.2685 115.317 51.193 113.519H54.7243V117.592C56.4641 115.906 57.7025 114.548 58.4399 113.519H63.0348L58.5676 117.856C59.2296 118.764 59.9716 119.751 60.7941 120.817C61.6263 121.883 62.3779 122.814 63.049 123.611H58.5959ZM64.1841 122.415C64.5052 121.943 64.7701 121.502 64.9783 121.095C65.1955 120.687 65.4037 120.215 65.6023 119.677C66.2734 120.057 67.0534 120.354 67.9423 120.567C68.8307 120.78 69.6583 120.886 70.4241 120.886C71.2086 120.886 71.7617 120.821 72.0834 120.692C72.4045 120.553 72.5655 120.404 72.5655 120.247C72.5655 119.681 71.6863 119.399 69.9277 119.399C67.999 119.399 66.5995 119.204 65.7299 118.815C64.8597 118.417 64.4252 117.777 64.4252 116.897C64.4252 115.646 64.9545 114.724 66.0135 114.131C67.0721 113.538 68.4477 113.241 70.1404 113.241C71.1236 113.241 72.1305 113.366 73.1612 113.617C74.201 113.857 75.137 114.191 75.9692 114.617C75.6947 115.229 75.4065 115.975 75.1041 116.855C75.0474 117.04 74.9997 117.179 74.9623 117.272C74.4801 116.893 73.7517 116.577 72.7783 116.327C71.8043 116.067 70.9437 115.938 70.1972 115.938C69.2987 115.938 68.6939 115.998 68.3819 116.119C68.0699 116.23 67.9139 116.397 67.9139 116.619C67.9139 116.841 68.1266 117.022 68.5521 117.161C68.9866 117.291 69.6107 117.356 70.4241 117.356C72.4283 117.356 73.8844 117.583 74.7921 118.037C75.6997 118.482 76.1535 119.167 76.1535 120.094C76.1535 121.391 75.6714 122.327 74.707 122.902C73.7426 123.467 72.2819 123.75 70.3248 123.75C69.2754 123.75 68.2067 123.639 67.1197 123.416C66.0323 123.184 65.0537 122.851 64.1841 122.415Z" fill="url(#paint25_linear_5_838)"/>
<path d="M26.5051 5.76259L23.6696 3.76208C23.3052 3.49577 23.0777 3.46438 22.6822 3.51281L19.99 3.80026C19.6307 3.83922 19.6046 3.9022 19.5076 4.23409L18.462 7.8598C18.3338 8.2848 18.3198 8.37549 18.6536 8.62897L21.243 10.6119C21.5134 10.8153 21.7131 10.8538 21.9391 10.8354L25.0167 10.6496C25.3899 10.6198 25.4473 10.5956 25.5685 10.1737L26.6828 6.29715C26.7621 6.02843 26.6917 5.88978 26.5056 5.76269L26.5051 5.76259ZM22.1217 8.73873C21.5635 10.4234 21.5475 10.4202 19.8719 9.17201C18.8477 8.40935 18.6729 8.20155 18.8894 7.45666L19.6224 4.93375C19.7921 4.34985 19.8355 4.30599 20.8651 5.10428C22.8253 6.62454 22.8068 6.67106 22.1217 8.73873ZM22.3599 5.86237L20.8119 4.67828C20.33 4.30962 20.2205 4.07796 21.2909 3.96427C23.138 3.76798 23.146 3.77101 24.3807 4.63564C25.7316 5.58125 26.2325 5.98033 25.1641 6.11947C23.8892 6.28553 22.9748 6.33264 22.3599 5.86237ZM25.8206 8.19743C25.2193 10.2914 25.1221 10.3514 23.2432 10.4485C22.0548 10.5096 21.8637 10.5361 22.0526 9.95791L22.877 7.4369C23.1183 6.69935 23.2004 6.66227 24.6966 6.49051C26.3343 6.30286 26.3316 6.41753 25.8206 8.19743ZM21.0242 6.45337C20.7098 7.36491 19.8446 6.38462 19.2576 7.12643C18.4752 8.11527 19.7936 8.88602 20.5842 9.46729C21.2701 9.97131 21.6796 9.65415 21.9534 8.70587C22.5413 6.66862 21.4079 5.34058 21.0242 6.45337ZM23.0051 10.0886C24.3495 10.4937 25.3736 9.71441 25.7383 7.67632C25.9103 6.71484 24.8732 6.52307 24.7161 7.47249C24.6428 7.9157 24.0592 8.65727 23.5145 8.60018C22.4434 8.48754 22.0606 9.80387 23.0051 10.0886ZM24.284 6.85747C23.0951 6.6365 22.9686 7.3676 23.2104 7.90478C23.7721 9.15295 25.5295 7.089 24.284 6.85747ZM23.4097 6.04288C25.799 6.15557 25.7471 5.40779 23.9585 4.71105C22.3135 4.07012 21.7389 5.96389 23.4097 6.04288Z" fill="url(#paint26_linear_5_838)"/>
<path d="M27.8516 6.31085L30.3105 6.2967" stroke="url(#paint27_linear_5_838)"/>
<path d="M14.6865 6.21946L17.1455 6.20531" stroke="url(#paint28_linear_5_838)"/>
<path d="M26.6914 2.71062L28.6808 1.29396" stroke="url(#paint29_linear_5_838)"/>
<path d="M16.3525 1.29526L18.3419 2.71192" stroke="url(#paint30_linear_5_838)"/>
<path d="M23.0601 2.41161L23.0459 0.00149155" stroke="url(#paint31_linear_5_838)"/>
</g>
<defs>
<linearGradient id="paint0_linear_5_838" x1="38.7006" y1="136.709" x2="39.487" y2="138.341" gradientUnits="userSpaceOnUse">
<stop offset="0.1" stop-color="#FFB001"/>
<stop offset="1" stop-color="#996A01"/>
</linearGradient>
<linearGradient id="paint1_linear_5_838" x1="38.7006" y1="136.709" x2="39.487" y2="138.341" gradientUnits="userSpaceOnUse">
<stop offset="0.1" stop-color="#FFB001"/>
<stop offset="1" stop-color="#996A01"/>
</linearGradient>
<linearGradient id="paint2_linear_5_838" x1="37.5072" y1="128.733" x2="33.8766" y2="139.574" gradientUnits="userSpaceOnUse">
<stop offset="0.1" stop-color="#FFB001"/>
<stop offset="1" stop-color="#996A01"/>
</linearGradient>
<linearGradient id="paint3_linear_5_838" x1="35.8483" y1="131.01" x2="34.2866" y2="135.684" gradientUnits="userSpaceOnUse">
<stop offset="0.1" stop-color="#FFB001"/>
<stop offset="1" stop-color="#996A01"/>
</linearGradient>
<linearGradient id="paint4_linear_5_838" x1="35.8483" y1="131.01" x2="34.2866" y2="135.684" gradientUnits="userSpaceOnUse">
<stop offset="0.1" stop-color="#FFB001"/>
<stop offset="1" stop-color="#996A01"/>
</linearGradient>
<linearGradient id="paint5_linear_5_838" x1="48.6498" y1="128.733" x2="45.0192" y2="139.574" gradientUnits="userSpaceOnUse">
<stop offset="0.1" stop-color="#FFB001"/>
<stop offset="1" stop-color="#996A01"/>
</linearGradient>
<linearGradient id="paint6_linear_5_838" x1="45.8766" y1="131.01" x2="44.3149" y2="135.684" gradientUnits="userSpaceOnUse">
<stop offset="0.1" stop-color="#FFB001"/>
<stop offset="1" stop-color="#996A01"/>
</linearGradient>
<linearGradient id="paint7_linear_5_838" x1="45.8766" y1="131.01" x2="44.3149" y2="135.684" gradientUnits="userSpaceOnUse">
<stop offset="0.1" stop-color="#FFB001"/>
<stop offset="1" stop-color="#996A01"/>
</linearGradient>
<linearGradient id="paint8_linear_5_838" x1="39.4406" y1="129.518" x2="37.8429" y2="131.43" gradientUnits="userSpaceOnUse">
<stop offset="0.1" stop-color="#FFB001"/>
<stop offset="1" stop-color="#996A01"/>
</linearGradient>
<linearGradient id="paint9_linear_5_838" x1="39.4406" y1="129.518" x2="37.8429" y2="131.43" gradientUnits="userSpaceOnUse">
<stop offset="0.1" stop-color="#FFB001"/>
<stop offset="1" stop-color="#996A01"/>
</linearGradient>
<linearGradient id="paint10_linear_5_838" x1="-nan" y1="-nan" x2="-nan" y2="-nan" gradientUnits="userSpaceOnUse">
<stop offset="0.1" stop-color="#FFB001"/>
<stop offset="1" stop-color="#996A01"/>
</linearGradient>
<linearGradient id="paint11_linear_5_838" x1="-nan" y1="-nan" x2="-nan" y2="-nan" gradientUnits="userSpaceOnUse">
<stop offset="0.1" stop-color="#FFB001"/>
<stop offset="1" stop-color="#996A01"/>
</linearGradient>
<linearGradient id="paint12_linear_5_838" x1="69.787" y1="47.3141" x2="68.2525" y2="26.8631" gradientUnits="userSpaceOnUse">
<stop offset="0.1" stop-color="#FFB001"/>
<stop offset="1" stop-color="#996A01"/>
</linearGradient>
<linearGradient id="paint13_linear_5_838" x1="69.787" y1="47.3141" x2="68.2525" y2="26.8631" gradientUnits="userSpaceOnUse">
<stop offset="0.1" stop-color="#FFB001"/>
<stop offset="1" stop-color="#996A01"/>
</linearGradient>
<linearGradient id="paint14_linear_5_838" x1="59.412" y1="47.785" x2="57.1311" y2="37.2954" gradientUnits="userSpaceOnUse">
<stop offset="0.1" stop-color="#FFB001"/>
<stop offset="1" stop-color="#996A01"/>
</linearGradient>
<linearGradient id="paint15_linear_5_838" x1="59.412" y1="47.785" x2="57.1311" y2="37.2954" gradientUnits="userSpaceOnUse">
<stop offset="0.1" stop-color="#FFB001"/>
<stop offset="1" stop-color="#996A01"/>
</linearGradient>
<linearGradient id="paint16_linear_5_838" x1="57.237" y1="57.0838" x2="54.9146" y2="35.2323" gradientUnits="userSpaceOnUse">
<stop offset="0.1" stop-color="#FFB001"/>
<stop offset="1" stop-color="#996A01"/>
</linearGradient>
<linearGradient id="paint17_linear_5_838" x1="57.237" y1="57.0838" x2="54.9146" y2="35.2323" gradientUnits="userSpaceOnUse">
<stop offset="0.1" stop-color="#FFB001"/>
<stop offset="1" stop-color="#996A01"/>
</linearGradient>
<linearGradient id="paint18_linear_5_838" x1="49.6526" y1="64.2458" x2="46.8864" y2="44.2231" gradientUnits="userSpaceOnUse">
<stop offset="0.1" stop-color="#FFB001"/>
<stop offset="1" stop-color="#996A01"/>
</linearGradient>
<linearGradient id="paint19_linear_5_838" x1="49.6526" y1="64.2458" x2="46.8864" y2="44.2231" gradientUnits="userSpaceOnUse">
<stop offset="0.1" stop-color="#FFB001"/>
<stop offset="1" stop-color="#996A01"/>
</linearGradient>
<linearGradient id="paint20_linear_5_838" x1="43.5554" y1="72.3262" x2="38.9694" y2="52.6044" gradientUnits="userSpaceOnUse">
<stop offset="0.1" stop-color="#FFB001"/>
<stop offset="1" stop-color="#996A01"/>
</linearGradient>
<linearGradient id="paint21_linear_5_838" x1="43.5554" y1="72.3262" x2="38.9694" y2="52.6044" gradientUnits="userSpaceOnUse">
<stop offset="0.1" stop-color="#FFB001"/>
<stop offset="1" stop-color="#996A01"/>
</linearGradient>
<linearGradient id="paint22_linear_5_838" x1="-nan" y1="-nan" x2="-nan" y2="-nan" gradientUnits="userSpaceOnUse">
<stop offset="0.1" stop-color="#FFB001"/>
<stop offset="1" stop-color="#996A01"/>
</linearGradient>
<linearGradient id="paint23_linear_5_838" x1="-nan" y1="-nan" x2="-nan" y2="-nan" gradientUnits="userSpaceOnUse">
<stop offset="0.1" stop-color="#FFB001"/>
<stop offset="1" stop-color="#996A01"/>
</linearGradient>
<linearGradient id="paint24_linear_5_838" x1="72.9354" y1="4.44173" x2="69.1489" y2="37.7824" gradientUnits="userSpaceOnUse">
<stop offset="0.1" stop-color="#FFB001"/>
<stop offset="1" stop-color="#996A01"/>
</linearGradient>
<linearGradient id="paint25_linear_5_838" x1="72.1543" y1="106.817" x2="69.6773" y2="133.211" gradientUnits="userSpaceOnUse">
<stop offset="0.1" stop-color="#FFB001"/>
<stop offset="1" stop-color="#996A01"/>
</linearGradient>
<linearGradient id="paint26_linear_5_838" x1="26.6996" y1="4.22224" x2="21.7433" y2="12.061" gradientUnits="userSpaceOnUse">
<stop offset="0.1" stop-color="#FFB001"/>
<stop offset="1" stop-color="#996A01"/>
</linearGradient>
<linearGradient id="paint27_linear_5_838" x1="30.1512" y1="6.54096" x2="30.1086" y2="7.20159" gradientUnits="userSpaceOnUse">
<stop offset="0.1" stop-color="#FFB001"/>
<stop offset="1" stop-color="#996A01"/>
</linearGradient>
<linearGradient id="paint28_linear_5_838" x1="16.9862" y1="6.44962" x2="16.9436" y2="7.11025" gradientUnits="userSpaceOnUse">
<stop offset="0.1" stop-color="#FFB001"/>
<stop offset="1" stop-color="#996A01"/>
</linearGradient>
<linearGradient id="paint29_linear_5_838" x1="28.6936" y1="1.57923" x2="29.0337" y2="2.13487" gradientUnits="userSpaceOnUse">
<stop offset="0.1" stop-color="#FFB001"/>
<stop offset="1" stop-color="#996A01"/>
</linearGradient>
<linearGradient id="paint30_linear_5_838" x1="18.0691" y1="2.81201" x2="17.654" y2="3.31637" gradientUnits="userSpaceOnUse">
<stop offset="0.1" stop-color="#FFB001"/>
<stop offset="1" stop-color="#996A01"/>
</linearGradient>
<linearGradient id="paint31_linear_5_838" x1="23.2898" y1="0.157644" x2="23.9493" y2="0.201002" gradientUnits="userSpaceOnUse">
<stop offset="0.1" stop-color="#FFB001"/>
<stop offset="1" stop-color="#996A01"/>
</linearGradient>
<clipPath id="clip0_5_838">
<rect width="78" height="139" fill="white"/>
</clipPath>
</defs>
</svg>
